<svg xmlns="http://www.w3.org/2000/svg" viewBox="0 0 4159.3 1216"><title>seamk_logo</title><path d="M1946,1731c-1.37-3-4-1.59-6.11-1.6-14.64-.11-29.28-.21-43.92,0-4.94.08-7-1.15-7-6.59.18-42.26.06-84.52.13-126.78,0-6.88.23-7,7.43-7,13.31-.09,26.62-.27,39.93,0,26,.59,45.47,12.39,48.87,41.67,2.39,20.66,2.94,41.78-1.29,62.56-3.49,17.14-12.49,29.34-30,34.24-1.6.45-4.25.56-4,3.49Zm-41.81-71.4c0,16.66.15,33.33-.1,50-.07,4.87,1.72,6.5,6.38,6.36,9.65-.29,19.35.21,29-.51,18.13-1.34,28.16-10.79,30.48-28.52a210.38,210.38,0,0,0,.34-53.83c-2.37-18.84-13.53-29.34-32.39-30.09-9-.35-18,.13-27-.21-5.22-.21-6.88,1.64-6.8,6.84C1904.32,1626.24,1904.15,1642.9,1904.15,1659.56Z" transform="translate(1202.04 -514.96)" fill="#0359a9"/><path d="M976,1731c-2.11-3.11-5.82-2.82-8.79-3.77-17.48-5.58-27.72-18.77-28.79-37.22-1-17.28-.77-34.56-.51-51.85a96.41,96.41,0,0,1,1.47-13.85c3-18.68,14.17-30,32-34.39,19.59-4.81,37.56-1.43,52.09,13.76,8.19,8.56,11.54,19.19,12.13,30.67a436.32,436.32,0,0,1,0,49.85c-1.42,22.24-12.14,37.86-34.08,44.66A1.9,1.9,0,0,0,1000,1731Zm43.7-71.51c.54-10.3,1.27-20.66-.49-30.86-3.49-20.21-20.31-27.29-33.27-27.09-17.14.27-30.17,12.53-31.92,29.74A281.21,281.21,0,0,0,954,1688c1.2,11.82,7.29,20.51,18.08,25.65,21.12,10.06,44.7-2.79,47.37-26.31C1020.53,1678.16,1019.66,1668.76,1019.66,1659.45Z" transform="translate(1202.04 -514.96)" fill="#0359a9"/><path d="M-508,1731c-3.84-4.39-9.95-4.71-14.39-8.4-9.65-8-17.09-16.41-17.82-30.18a585.73,585.73,0,0,1,0-64.78c1.32-23.12,19.91-35.34,35.7-38.4,14.93-2.89,28.88-.73,41.66,8,11.75,8,17.73,19.39,18.91,33.15a331.74,331.74,0,0,1,.06,56.82c-1.61,18.83-10.82,32.65-28.84,40-1.81.74-4.76.82-5.24,3.78Zm-18-71.82c.4,10-.56,20.63,1.6,31.19,3.37,16.53,16.46,27.06,33.48,26.6,16.29-.45,29-11.49,31.18-28a222,222,0,0,0-.05-59.67,31.52,31.52,0,0,0-31.53-27.77c-19.15,0-31,13.32-33.09,26.18C-526.18,1638-525.77,1648.21-526.08,1659.14Z" transform="translate(1202.04 -514.96)" fill="#0359a9"/><path d="M-146,1731c-1.54-4.08-6-4.53-9-6.12-14.82-7.8-21.92-20.31-22.25-36.29-.64-30.31-.4-60.64-.4-91,0-2.77-1.59-6.69,1.88-8.06,3.66-1.44,7.9-.94,11.82-.1,1.39.3,1.7,1.89,1.72,3.26.05,2.33.05,4.66.05,7,0,27.32,0,54.65,0,82,0,9.84,1.92,18.89,9.51,26.27,17,16.57,46.24,10.18,54.59-12a62.13,62.13,0,0,0,3.76-23.07c-.25-25.33-.12-50.66,0-76,0-2.54-1.24-6.17,1.57-7.3,3.61-1.46,7.83-1.09,11.71-.07,1.35.36,1.52,2,1.56,3.38.06,1.67.06,3.34.06,5,0,27.33-.12,54.65,0,82,.14,23.91-10.13,40.56-33,48.86-.72.26-1.1,1.47-1.64,2.23Z" transform="translate(1202.04 -514.96)" fill="#0359a9"/><path d="M2086,1731c-3.19-3.7-8.16-3.92-12.13-6.14a77.41,77.41,0,0,1-13.71-9.29c-2.47-2.18-2.49-4.12-.27-6.75,5.68-6.71,7.94-7,15.43-1.26,14.52,11.13,37.79,12.69,52.3,3.83,14.23-8.69,15.51-23.13,8.7-33-4.62-6.7-12.67-9.31-20.28-10.93-7.08-1.51-14.54-1.86-21.67-3-13.82-2.26-30.16-9.59-32.41-30.46-.83-7.69.4-14.48,2-21.37,2.1-9.2,9.7-14.75,17.22-19,14.76-8.39,49.09-9.61,66.49,9.36.16,2-1.51,2.81-2.61,3.92-6.47,6.57-6.47,6.51-14.45,1.56-11.76-7.28-23.86-9.64-37.43-4.54-11.19,4.21-16.61,13.4-15.59,25.58.9,10.74,5.54,16.7,17.48,19.57,7.42,1.78,15.06,2.62,22.58,4,10.15,1.86,19.88,4.2,27.66,12.12,12.61,12.84,13.34,37.1.76,50.65-5.73,6.18-12,11.25-20.7,12.77-2.48.44-5.46,0-7.34,2.42Z" transform="translate(1202.04 -514.96)" fill="#0359a9"/><path d="M536,1731c-2.4-3-6.19-2.52-9.18-2.92-11.31-1.52-19.42-7.71-26.34-16.11,9.3-10.09,9.39-10.21,20.25-2.76,12.37,8.49,26.19,9.56,40.06,6.56,9.78-2.11,17.12-8.27,20.72-18.67,3.82-11-4-23.16-12.28-26.58-9.91-4.08-20.42-5.27-30.92-6-12.69-.92-22.23-6.8-29.53-16.85-2.46-3.37-2.19-7.48-2.72-11.31-1.18-8.55-1.32-17.21,1.64-25.38,3.94-10.88,11.94-17.18,23.34-20.15,18.12-4.72,35.31-3.92,51.64,5.85a40.82,40.82,0,0,1,4.93,3.26,38.58,38.58,0,0,1,3.57,3.83,37.31,37.31,0,0,1-2.41,3c-6.5,6.6-6.41,6.39-14.79,2.07-8.74-4.5-17.47-8.8-28-7.67-18.7,2-29.1,15.37-24.85,32.61,1.64,6.64,5.82,10.78,11.93,13.45,8.05,3.53,16.78,3.84,25.22,5.54,4.53.92,9.22,1.3,13.59,2.68,14.45,4.56,23.8,14.22,25.88,29.4s-2.89,27.85-15.79,37.17c-5,3.64-11.43,4.61-16,9Z" transform="translate(1202.04 -514.96)" fill="#0359a9"/><path d="M-1202,1709c2.82.85,4.35-1.07,5.85-2.83,3.24-3.84,6.08-3.83,10-.39,11.48,10.09,25.43,12.53,40.06,11,12.26-1.31,21-7.6,25.55-19.71,3.68-9.69-3.3-22.47-11.62-26.15-9.84-4.34-20.36-5.59-30.83-6.23a39.69,39.69,0,0,1-20-6.62c-7.55-5-12.9-11.86-13.26-21.9-.31-8.59-1-17.15,2-25.34,4-11,12.1-17.08,23.44-20,18.12-4.72,35.31-3.84,51.6,6a39.85,39.85,0,0,1,4.92,3.3,36.91,36.91,0,0,1,3.51,3.82c-1.17,1.32-2.19,2.59-3.32,3.73-5.67,5.73-5.54,5.45-13.14,1.57-9.34-4.78-18.8-9.85-29.9-7.79-19.75,3.67-25.82,13.24-24.41,29.68.67,7.85,5.4,13.11,12.74,16.25,8.09,3.48,16.78,3.92,25.25,5.43a94.22,94.22,0,0,1,19.07,5c21.43,8.62,25.62,37.13,14.61,54-5.33,8.18-13.09,12.6-21.55,16.33-1.7.76-4.12.18-4.56,2.88h-30c-.72-1.28-2-1.51-3.26-1.73a54.89,54.89,0,0,1-27-12.93c-1.71-1.47-3.23-3.29-5.77-3.34Z" transform="translate(1202.04 -514.96)" fill="#0359a9"/><path d="M2888,1731c-3-4.74-9.14-3.17-13-6.5-2.45-2.1-5.76-3.19-8.06-5.68-5.92-6.41-5.71-7.13.52-13.27,3.11-3.06,5-2.76,8.12,0,13,11.52,28.6,13.26,44.85,10.37,11.15-2,20.59-12.84,22-23.68.78-6-5-16-10.75-19.7-9.61-6.31-20.66-6.73-31.42-7.74a46.38,46.38,0,0,1-13.1-2.72c-11.83-4.84-20.82-12.2-21.58-26.6-.46-8.64-.81-17.12,2.38-25.25,4.25-10.87,12.39-17.06,23.75-19.81,17.78-4.29,34.74-3.44,50.8,6.08,3.18,1.88,6.3,3.69,8.29,7.38a31.17,31.17,0,0,1-2.26,2.9c-6.46,6.59-6.4,6.44-14.69,2-9-4.8-18.23-9.44-29-7.47-18.2,3.35-24.57,11.47-24.82,25.62-.2,11.37,6.16,19.54,17.46,22,10.35,2.29,20.85,3.91,31.25,6,17.94,3.64,31.5,18.06,28,42.63-2.31,16-11.89,24.39-25.78,29.87-3,1.18-6.76.31-8.95,3.45Z" transform="translate(1202.04 -514.96)" fill="#0359a9"/><path d="M2658,1731c-.47-.8-.82-2.16-1.44-2.31-14.07-3.25-23.09-12.39-28.35-25.23-3.24-7.92-3.55-16.64-3.81-25.12-.61-19.62-.67-39.25,1.81-58.79,1-7.71,6-13.15,11-18.09,19.12-19.18,60.65-19,77.34,7.9a21.71,21.71,0,0,1,2.83,5.24c1.26,4.7,3.86,9,4.19,13.89-2.11,2-4.57,1.13-6.8,1.5-6.38,1.08-10.19-1.49-12.11-7.63-3.87-12.39-14.16-17.62-25.35-20.42-10.85-2.71-33.78,7.35-35.78,24.06a295.63,295.63,0,0,0-.3,64.67c2.48,25,36.54,34.52,52,18.72,4.17-4.27,9.82-7.9,10.88-13.69,1.2-6.54,4.78-7.07,9.72-6.86,2.6.1,5.33-.64,8.26,1.38-4.51,16.67-12,30.93-29.7,37.43-1.48.54-4.15.65-4.33,3.35Z" transform="translate(1202.04 -514.96)" fill="#0359a9"/><path d="M2214,1731c-2.45-3.66-6.77-4.28-10.25-6.24-12.91-7.28-20.36-17.92-21.56-32.93-1.88-23.61-1.3-47.2.24-70.77.49-7.51,5.28-13.36,10.26-18.49,17.52-18,51.16-19.91,70.26-3,7.55,6.71,11.9,15.7,14.93,25.24,1,3.13-.07,4.82-3.76,5.15-8.89.8-10.1.13-14.33-9-2.27-4.92-6.18-8.56-10.36-11.8-21.15-16.33-45.13-3.23-50.4,13.58a58.84,58.84,0,0,0-2.41,15.63c-.52,17-1.06,33.88,1,50.83,1.5,12.6,8.51,20.91,19.46,25.36,12,4.88,23.84,3.4,34.11-5.63a45.11,45.11,0,0,0,8.58-10.79c6-10,5.72-10.2,18.79-8.35-3.42,16.8-11.8,29.47-27.43,37.3-2.32,1.16-6.4-.27-7.1,3.89Z" transform="translate(1202.04 -514.96)" fill="#0359a9"/><path d="M-634,1731c-1.12-4.75-6.55-2.63-9.36-5.89-2-2.32-5.38-4.49-8.24-7,.88-1,1.67-2,2.54-2.87,6.56-6.75,6.45-6.52,15.19-2,19.68,10.22,42.37.18,43.67-24,1.47-27.23.45-54.6.51-81.9,0-3.67-.06-7.33,0-11,.16-7.5.19-7.5,8-7.43,7.12.06,7.29.06,7.31,7.13.07,30.64.32,61.28-.07,91.91-.23,17.19-7.68,30.58-23.48,38.7-2.16,1.1-5.23,1.24-6.11,4.28Z" transform="translate(1202.04 -514.96)" fill="#0359a9"/><path d="M2344,518.52c.71-1.16,2.63-1.64,2-3.56h4c1.57,3.81,5.26,1.26,9.88,3.8-6.71-1-10.63,2-15.27,1.6A8.52,8.52,0,0,1,2344,518.52Z" transform="translate(1202.04 -514.96)" fill="#36b55a"/><path d="M-29.08,1729.22a3.27,3.27,0,0,0,3,1.74H-40a2.57,2.57,0,0,0,2.56-1.75Z" transform="translate(1202.04 -514.96)" fill="#36b55a"/><path d="M2312,1731a3.17,3.17,0,0,0,3-1.74h8.41A2.63,2.63,0,0,0,2326,1731Z" transform="translate(1202.04 -514.96)" fill="#36b55a"/><path d="M1884.23,1077.84c2.25-1.93,5-2,7.55-2.48,27.26-4.92,52.08-16.18,76.12-29.38,14.55-8,27.9-18,40.8-28.21,10.59-8.42,19.31-19.17,29-28.8,27.22-27.23,49.15-58.58,69.91-90.74,13.82-21.41,26.65-43.43,39.09-65.71q17.46-31.28,35.27-62.37c17.24-30.11,35.38-59.7,55.08-88.24a489.69,489.69,0,0,1,71.07-81.78c33.88-31.29,73.42-51.88,118.11-63a304.6,304.6,0,0,1,74-9.35c8.14,0,8.31.16,8.31,8.34-.07,93,.1,186-.44,279-.2,33.86-8.81,66.27-21.3,97.61a324.79,324.79,0,0,1-75.52,113.28c-31.67,30.93-67.71,54.91-110.79,67.31a190.47,190.47,0,0,1-52.82,7.53q-147.49.15-295,0c-23.47,0-45.83-4.42-65.45-18.32C1885.91,1081.56,1884.27,1080.76,1884.23,1077.84Z" transform="translate(1202.04 -514.96)" fill="#36b55a"/><path d="M919.61,933c8.29-20.19,16.72-38.29,25.1-56.43,7.2-15.56,13.06-31.76,20.63-47.12,4.58-9.28,8.66-18.83,12.82-28.21C981.8,793,986,784.93,989,776.31c3.73-10.67,9.58-20.57,13.9-31.06,3.68-9,8.09-17.56,11.85-26.47,4.3-10.15,9.23-20,13.54-30.24,4-9.49,8-19.06,12.6-28.24s8.15-19,13.14-28.12c4.82-8.79,7.79-18.54,12.22-27.62,4.67-9.58,8.53-19.55,12.86-29.3s8.85-19.43,13.22-29.17c.92-2.07,1.58-4.25,2.36-6.38,3.21-8.68,8.62-12.71,18.66-12,13.59,1,27.32.2,41,.28,8.36,0,8.37.14,8.55,8.06,0,1.67,0,3.34,0,5q0,273.48,0,547c0,14.9,1.37,12.8-12.61,12.91s-28-.2-42,.13c-5.33.13-7.24-1.73-6.71-6.84a68.05,68.05,0,0,0,0-7V668.59c-6.2,8.6-9.38,17.16-13.18,25.26-8.66,18.49-16.59,37.31-25,55.91q-28.32,62.52-56.84,125-16.56,36.43-33,72.91c-8.69,19.18-17.49,38.31-26,57.55-1.82,4.11-4,6.05-8.86,5.93-13.66-.34-27.34-.39-41,0-4.84.15-7.25-2.25-9.36-5.65a28,28,0,0,1-2.22-5.42c-4.63-13.23-11.59-25.43-17.49-38.07-5.47-11.74-10.59-23.69-16.15-35.4-6.38-13.46-12.7-27-18.73-40.67-5.23-11.84-10.44-23.81-16.59-35.27a76.79,76.79,0,0,1-5.38-11.48c-2.19-6.52-6-12.3-8.48-18.57C797.82,807,791.11,794,785,780.73c-5.4-11.76-11-23.53-16.41-35.3-6.31-13.86-13.87-27.21-18.73-41.75A52,52,0,0,0,744,692.46c-4.31-6.7-5.23-14.78-9.22-22.56-2.29,4-1.42,7.55-1.42,10.9q-.09,203.49-.07,407c0,15.17,1.73,13.06-13.36,13.19-12.66.11-25.33,0-38,0-11.06,0-9.93.7-10-10.46,0-1,0-2,0-3q0-273,0-546c0-15.35-2.34-13.42,14-13.54,13.66-.1,27.33.14,41-.1,4.69-.08,7,1.7,8.91,6C749,563.05,762.48,592,775.78,621.09q37.47,81.82,74.88,163.67c12.23,26.65,24.71,53.19,37,79.81,8.85,19.15,17.57,38.35,26.4,57.51C915.59,925.36,917.35,928.53,919.61,933Z" transform="translate(1202.04 -514.96)" fill="#0359a9"/><path d="M1716.78,529.37c-4.22,5.35-8,10.24-11.85,15q-43.58,53.61-87.21,107.16Q1580,697.75,1542,743.73c-3.52,4.25-3.47,7.32-.68,12,24.92,42,49.54,84.21,74.26,126.34q28.54,48.67,57.11,97.34,34.06,58.06,68.1,116.13c.85,1.45,1.64,2.92.41,5.41h-44.34c-2.33,0-4.66,0-7,0-6.31-.14-12.88.69-18.88-.78-6.33-1.56-6.13-9.39-9.41-14.09-7.43-10.65-13-22.57-19.49-33.89-6.8-11.87-13.85-23.61-20.63-35.49-6.63-11.6-13-23.37-19.59-35s-13.45-23.08-20.15-34.63c-3.43-5.93-6.75-11.91-10.19-17.83q-15.48-26.61-30.44-53.51c-8.71-15.66-18.57-30.67-26.56-46.79-4.74-9.58-11.1-18.43-15.86-28.11-1.53-3.11-3.56-2.48-5.4-.4-5,5.73-10.11,11.46-15,17.33-15,18.12-29.9,36.37-45,54.46q-26.74,32.12-53.76,64c-3.42,4-3.4,8.41-3.4,13.07q0,69.48,0,139c0,14.73,1.91,12.5-12.73,12.64-14,.12-28-.14-42,.11-4.75.08-6.84-1.47-6.4-6.27.17-2,0-4,0-6q0-273.93,0-547.88c0-14.43-1.65-12.82,12.71-12.9,14-.08,28,.1,42-.07,4.49-.05,7,1.08,6.45,6.15a62.65,62.65,0,0,0,0,7v313.7c4.23-2.27,5.85-5.18,7.84-7.63Q1510,692,1635.84,536.6c5.09-6.29,10.12-9.21,18.4-8.87,17.31.71,34.66.22,52,.3C1709.4,528.05,1712.72,527.39,1716.78,529.37Z" transform="translate(1202.04 -514.96)" fill="#0359a9"/><path d="M591.52,1100.37c-3.89,1.23-8.19.56-12.38.58-15,.09-30-.12-45,.11-5.27.09-8.12-1.3-10-6.83-6.91-20.62-14.56-41-21.8-61.51-6.71-19-13.42-38-19.71-57.15-1.07-3.27-2.39-4.33-5.4-4.26-2,.05-4,0-6,0H242.35c-10.16,0-10.4-.07-13.91,9.74-11,30.65-21.74,61.37-32.59,92.06-2.64,7.44-5.43,14.82-7.93,22.3-1,3-1.93,5.58-5.8,5.57-20,0-39.89,0-60,0-.69-9.54,3.74-17,6.37-24.77,6-17.56,12.94-34.77,19.34-52.19,6.31-17.14,12.3-34.39,18.61-51.52,13-35.34,26.19-70.62,39.22-106,10.41-28.2,20.62-56.46,31.06-84.65,15-40.47,30.51-80.74,45.07-121.37,12.06-33.69,25.4-66.92,36.5-101,2.78-8.5,7.17-16.49,9.83-25,1.66-5.3,4.71-6.55,9.41-6.54,13.33,0,26.67.32,40-.13,5.47-.18,6.71,3.17,8.07,6.88,7.11,19.48,14.08,39,21.21,58.48q29,79.17,58.13,158.3,39.9,108.83,79.75,217.65,23.26,63.45,46.65,126.86A5.76,5.76,0,0,1,591.52,1100.37ZM359.31,619.72l-2.17-.38q-17.68,49.59-35.36,99.17c-11.84,33.2-23.87,66.34-35.53,99.6-11.6,33.07-24.05,65.87-35.08,99.64H463.94C428.85,817.81,394.08,718.77,359.31,619.72Z" transform="translate(1202.04 -514.96)" fill="#0359a9"/><path d="M-403.79,586.89q-17.93,17.9-35.9,35.89c-2.64,2.65-5,2.44-7.79.15-4.35-3.57-8.93-6.87-13.39-10.31-19.74-15.2-42-24.15-66.21-30.31-26.41-6.72-52.63-7.25-78.95-3.09-31.34,4.95-58,18.84-75.88,46.37-7.32,11.24-11.3,23.74-13.24,36.87-2.51,16.95-2.33,34,1.93,50.58,5.68,22.16,20.16,37.31,40.09,47.84,20.75,11,43,16.49,66,20.06,28.29,4.39,56.78,7.66,84.76,13.84,21,4.63,41.46,10.94,59.62,23,27.73,18.4,47,42.94,56.91,75.17a167.18,167.18,0,0,1,3.89,85.69c-6.94,32.25-22.54,59.56-48,81.29-21.44,18.33-45.89,29.89-72.93,37-43.83,11.48-87.95,10.29-132.42,4.93a214,214,0,0,1-53.94-13.52,218.17,218.17,0,0,1-58.59-34.14c-7.9-6.51-15.7-13-22.17-21.1-2.45-3-2.25-5,.39-7.56,11.38-11.24,22.73-22.51,33.91-34,3.58-3.67,6.15-2.58,9.13.54,9.9,10.34,21.07,19.15,32.86,27.25,23.62,16.23,49.83,25.53,78.08,29.09,27.89,3.52,55.91,4.53,83.56-1.6,25.73-5.7,49.5-15.72,67.55-36.1,10.28-11.61,16.95-24.76,21.06-40a100.3,100.3,0,0,0,3.19-36.25c-1.68-17.2-6.49-33.78-16.52-48.11-11.33-16.17-27.62-26-46.15-31.6-35.26-10.56-72-13.7-108.15-19.37a288.7,288.7,0,0,1-51.11-12.51c-28.82-10.11-53.32-26.1-71.63-51-9.55-13-16.66-27.69-19.5-42.94-4.61-24.78-5.77-50.05-1.7-75.49,2.28-14.22,5.21-28.07,11.55-40.79a150.24,150.24,0,0,1,28.14-38.95A152.19,152.19,0,0,1-672,543c20.79-9.92,42.87-15.19,65.6-17.95a301,301,0,0,1,81.71,1.59c39,5.91,74,20.93,104.86,45.65C-414.41,576.66-408.65,580.6-403.79,586.89Z" transform="translate(1202.04 -514.96)" fill="#0359a9"/><path d="M9.81,1000.93c15.5,11.88,29.41,25.06,44,38.41-10,10.82-21.16,19.79-32.34,28.83-19.22,15.55-41.42,25.14-64.69,32-11,3.26-22.92,3.75-34.49,4.59a313.82,313.82,0,0,1-74.63-3.4c-30.26-5-56.54-17.38-79.12-37.77-10.52-9.51-18.76-21-26.89-32.63-12.25-17.51-19.86-37.3-24.49-57.51a347.36,347.36,0,0,1-8.92-66.08,476.75,476.75,0,0,1,5.08-88.64C-284,801.13-279.89,784-272.81,768c11.31-25.61,25.4-49.39,48.06-67.56,14.87-11.92,30.66-21.65,48.49-27.18,36.12-11.2,72.84-12.66,109.79-3.26,30.25,7.69,56.35,22.37,77.41,45.45,18.54,20.33,30.71,44.31,38.94,70.46a271.8,271.8,0,0,1,12,74.48c.33,12,.06,24,.25,36,.06,3.86-1.4,5.47-5.23,5.25-2.66-.16-5.33,0-8,0H-215c-2.67,0-5.34.17-8,0-4.5-.33-5.7,1.9-5.64,6,.38,25.4,3.63,50.35,13.81,73.78,16.19,37.29,44.3,60,84.75,66.66,26,4.28,51.81,3.71,77-4.53,14.5-4.74,27.52-12.43,39.66-21.81C-5.3,1015.39,1.8,1008.09,9.81,1000.93ZM-115.37,853.86h18q43.95,0,87.91,0c7.83,0,8-.15,7.71-7.49-.64-19.37-3.3-38.29-9.76-56.78-26-74.31-117.33-92.1-172.25-48.67-35.11,27.75-43.52,66.82-44.57,108.73-.07,3,1.23,4.23,4.11,4.19,2.33,0,4.66.05,7,.05Z" transform="translate(1202.04 -514.96)" fill="#0359a9"/><path d="M2344,518.52a8.52,8.52,0,0,0,.57,1.84c-3,4.35-8,2-11.91,3.1-22.71,6.13-44,15.34-65.09,25.72s-38.85,25-55.92,40.56c-38.29,35-68.6,76.44-95.86,120.25-17.64,28.34-33.94,57.48-50.25,86.59-27,48.23-54.21,96.38-88.24,140.16-28.3,36.42-60,69.39-99.3,94.25-7.75,4.9-16.28,8.57-25.22,13.21-5.3-11-10.59-21.5-12.42-34.06-2.84-19.39-1.85-38.56.5-57.65,1.55-12.58,5.63-24.86,8.77-37.23,4.28-16.87,10.38-33.14,17.26-49.1,7.74-18,15.36-35.93,25.59-52.82,7.46-12.3,14.62-24.83,22.41-36.93a429.85,429.85,0,0,1,35.43-47.55c12.46-14.49,25.11-28.94,38.84-42.21,10.37-10,21-19.92,32.16-29.23,10.26-8.54,20.48-17.17,31.06-25.34,18.43-14.25,38.06-26.7,58.11-38.52A564.41,564.41,0,0,1,2174,561.45a535.82,535.82,0,0,1,57.19-20.94C2268.05,529.38,2305.46,521,2344,518.52Z" transform="translate(1202.04 -514.96)" fill="#00bce3"/><path d="M688,1409.69c4.88-11.71,9.57-23.31,14.54-34.79,3.34-7.72,6.78-15.47,10.54-22.92,5.69-11.33,10-23.21,15.43-34.59,1.95-4.07,14.12-7,17.65-4,1.77,1.45,1.25,3.66,1.26,5.6,0,10.33,0,20.66,0,31q0,46.47,0,93c0,10.26-1.47,11.41-11.43,10.12-3-.38-4.05-1.67-4-4.43,0-2.33,0-4.67,0-7v-89.44c-4,.44-4.65,4-5.63,6.06-10.31,22.07-20.75,44.09-30,66.59-2.71,6.58-6.56,6-11.5,6.25-5.39.3-7.66-2.33-8.48-7.25-1.1-6.61-5.75-11.6-8.34-17.57-7.86-18.09-16.14-36-24.64-54.82-1.94,2.39-1.32,4.67-1.32,6.67q-.07,42.48,0,85c0,10.1-1.65,11.39-11.47,10-3-.43-4-1.88-4-4.57,0-2,0-4,0-6V1322.51c0-2,0-4,.05-6,0-1.34.22-2.87,1.63-3.3,3.9-1.18,7.93-.7,11.88-.37,2.82.24,3.11,3,4.07,5.09,13.19,28.78,26.46,57.52,39.58,86.33C684.68,1406.35,685.4,1408.31,688,1409.69Z" transform="translate(1202.04 -514.96)" fill="#0359a9"/><path d="M571.36,1350.92c-3.76,1.72-4.17,4.62-5.2,6.85q-14.86,32.26-29.39,64.69c-3.93,8.73-4.26,8.88-13,8.61-3.53-.11-5-1.61-6.54-4.57-8.84-17.37-16.85-35.11-24.58-53-2.67-6.19-6.12-12-9.63-18.86-2.3,2.73-1.55,5.41-1.56,7.75-.06,27,0,54-.05,80.95,0,9.11-4.3,12.18-12.88,9.45-1.46-.47-2.3-1.22-2.39-2.69-.12-2-.18-4-.18-6,0-41-.05-82,.09-122.93,0-2.87-2.13-7,2.72-8.41,6.07-1.79,12.2.07,14.32,4.63,11,23.62,21.83,47.29,32.75,70.94,3,6.48,6.08,12.91,9.42,20,5.28-4.28,7-10,8.71-14.62,3.2-8.51,8.25-16.19,10.58-25,1.66-6.28,5.6-11.67,8.34-17.49,5.24-11.13,9.12-22.91,15.46-33.54,1.43-2.39,2.39-4.86,5.51-4.92a108.35,108.35,0,0,1,11,.33c.52,0,1.18,1.51,1.32,2.39a34.4,34.4,0,0,1,.17,5q0,62,0,123.94c0,2.81,1.54,6.93-1.8,8.1s-7.24.43-10.88.21c-1.39-.08-2-1.56-2.09-3-.08-2.66-.11-5.33-.11-8C571.36,1411.74,571.36,1381.76,571.36,1350.92Z" transform="translate(1202.04 -514.96)" fill="#0359a9"/><path d="M241.36,1420.94c0-33.45,0-66.45,0-99.44,0-8.36,4.34-11.31,12.49-8.74a2.81,2.81,0,0,1,2.31,2.73q.13,3,.13,6,0,61,0,122c0,2,0,4-.08,6a3.24,3.24,0,0,1-2.77,3.44c-7.45,1.85-13.17-.39-17.52-7-17.47-26.53-34.88-53.08-52.48-79.52-4.82-7.24-9.82-14.36-15.64-21.87v7.35c0,31.34,0,62.67-.07,94,0,2.4,1.32,5.94-2.35,6.71-3.85.81-8.05,1.22-11.77-.4-2-.86-1.33-3.56-1.34-5.51,0-8,0-16,0-24,0-33.66-.05-67.33.1-101,0-3-2-7,2.3-8.77,4.73-2,12.33.12,15,4,8.08,12.1,16.07,24.27,24.15,36.38q21.22,31.85,42.56,63.61C237.34,1418.44,237.78,1420.81,241.36,1420.94Z" transform="translate(1202.04 -514.96)" fill="#0359a9"/><path d="M-368,1421.78v-97.12c0-2.33.19-4.68,0-7-.4-4.13,1.76-5.24,5.35-5.06,2,.1,4,.07,6,0,3,0,4.18,1.48,4.12,4.32,0,2,0,4,0,6v119.87c0,1.67-.12,3.34,0,5,.29,3.94-1.65,5.06-5.37,5.22-7,.3-12-.75-16.32-7.83-12.16-20.11-25.48-39.53-38.41-59.18-7.18-10.92-14.28-21.91-21.88-32.53-2.1-2.93-3.1-6.41-5.21-9.35-3.31,1.53-1.83,4.18-1.84,6.13-.1,31.3-.05,62.6-.08,93.9,0,8-5.14,11.48-12.57,8.59a3.12,3.12,0,0,1-2.21-2.91c-.11-2.32-.15-4.65-.15-7q0-60.45,0-120.88c0-2,0-4,.08-6a3.19,3.19,0,0,1,1.87-3.14c4.48-2.09,12.8.41,15.68,4.75q31.85,47.92,63.64,95.86C-373.58,1416.2-372.12,1419.14-368,1421.78Z" transform="translate(1202.04 -514.96)" fill="#0359a9"/><path d="M-884,1621.13v76.76c0,8.33-.19,16.66.07,25,.15,4.51-.94,6.56-6,6.56-9.3,0-9.5.18-9.51-9.1q0-61.44.07-122.89c0-2.94-1.83-7,2.93-8.39,5.25-1.53,11.53.18,14.08,4q20.13,30.15,40.14,60.37,13.1,19.77,26,39.63c1.27,2,2.37,3.85,5.82,4.32v-9.73q0-45.45,0-90.92c0-2.53-1.22-6.23,1.67-7.23a18.84,18.84,0,0,1,11.71.11c1.37.44,1.43,2.1,1.46,3.43.06,2.66.06,5.33.06,8q0,58.45,0,116.9c0,2.66,0,5.33-.09,8,0,1.86-.9,2.86-2.86,3.32-6.91,1.62-11.73-.19-15.9-6.48q-31.17-47-62.31-94.09c-1.81-2.73-3.78-5.35-5.67-8Z" transform="translate(1202.04 -514.96)" fill="#0359a9"/><path d="M2574,1699.28v-43.1c0-20,0-40,.06-60,0-2.42-1.32-6,2.15-6.84a20,20,0,0,1,11.81.29c1.59.59,1.42,2.82,1.42,4.48q0,6.49,0,13v110.92c0,2.66,0,5.33-.11,8-.06,2-1.32,2.77-3.12,3.19-7.07,1.65-11.69-.16-15.89-6.51q-30.6-46.23-61.17-92.47c-2.17-3.27-4.48-6.46-6.89-9.93-2.72,2.58-1.59,5.35-1.6,7.73-.1,31,0,62-.12,92.93,0,2.53,1.32,6-1.28,7.43-3.53,2-7.77.92-11.69.56-1.37-.13-1.85-1.67-1.86-3.09,0-1.66-.06-3.33-.06-5V1597c0-1.66,0-3.33.13-5,.12-1.94,1.22-2.7,3.15-3.06,7-1.28,10.72.22,14.89,6.48q30.74,46.18,61.34,92.44C2567.33,1691.2,2569.81,1694.19,2574,1699.28Z" transform="translate(1202.04 -514.96)" fill="#0359a9"/><path d="M-29.08,1729.22h-8.4c-1.84-.08-3.19-.93-3.37-2.85-.23-2.32-.28-4.66-.28-7q0-59.49,0-119a8.88,8.88,0,0,1,0-2c.77-3.2-1.87-7.73,3.12-9.28a12.22,12.22,0,0,1,14.32,5.13q31.49,47,62.93,94c2.16,3.22,4.38,6.41,8.52,9.22v-7.37q0-46,0-92c0-9.48.85-10,10.25-9.23,3.54.29,4.6,1.86,4.5,5,0,1.66,0,3.33,0,5q0,60.5,0,121c0,1.67-.11,3.34,0,5,.22,3.58-1.72,4.31-4.89,4.52-6,.4-10.31-.83-14-6.65-17.8-27.75-36.22-55.12-54.44-82.61-4.36-6.58-8.82-13.11-15-19.39v7.38c0,30.66.07,61.32-.09,92C-26,1723.26-24,1727.59-29.08,1729.22Z" transform="translate(1202.04 -514.96)" fill="#0359a9"/><path d="M481.27,1728.28c-12.6,4-18.82-1.12-23.51-12-6.44-14.92-14.77-29-22-43.64-2.06-4.18-4.64-5.86-9.25-5.58-5.64.34-11.31.06-17,.08-10.2.06-9.92-1.28-9.92,9.49,0,14.64.08,29.29-.07,43.93,0,2.78,1.62,6.68-1.76,8.1-3.63,1.52-7.86.93-11.8.19-1.47-.28-1.81-1.75-1.84-3.12q-.06-3.49-.06-7,0-59.4,0-118.82c0-2.33,0-4.66,0-7s1-4,3.44-3.91c21.19.84,42.5-2.31,63.58,2,23.46,4.75,31.06,28.22,28.21,43.64-2.65,14.35-10.08,25.48-24.87,30-4.6,1.41-4.18,4-2.43,7.31q13.34,25.41,26.6,50.84C479.58,1724.52,480.34,1726.31,481.27,1728.28Zm-81.6-99.87c0,6.66.1,13.33,0,20-.08,3.62.95,5.57,5,5.48,12.32-.28,24.69.23,37-.66,14.87-1.07,22.93-10.45,22.87-25-.06-14.33-8.58-24.14-23.07-25-12.28-.76-24.65-.21-37-.37-3.36,0-4.86,1.13-4.79,4.61C399.78,1614.41,399.68,1621.41,399.67,1628.41Z" transform="translate(1202.04 -514.96)" fill="#0359a9"/><path d="M1486.81,1390.16l31.4,60.62c-1,2.12-2,2-2.94,2.15-10.89,2-17.27-1.87-21.6-12.77-5.9-14.86-14.29-28.72-21.1-43.25-2.19-4.66-4.91-6.28-9.8-6-6,.33-12,0-18,.08-8.39.08-8.44.11-8.47,9,0,15,0,30-.06,45,0,2.54,1.25,6.11-1.49,7.34-3.59,1.61-7.81,1-11.7.2-1.33-.29-1.6-2-1.64-3.34,0-1.66-.07-3.32-.07-5q0-61.44,0-122.89c0-9.15-.41-8.65,8.73-8.65,14.66,0,29.31,0,44,0a56.11,56.11,0,0,1,15.69,2.14c16.3,4.8,26.45,17.37,27.08,36.15.52,15.23-8.61,32.62-26.41,37.67A38,38,0,0,0,1486.81,1390.16Zm-50.49-38.2c0,6.65.13,13.3,0,19.94-.1,3.74,1.18,5.46,5.1,5.4,12-.18,24,.23,35.89-.32,15.06-.7,24.28-10.37,24.49-24.74.22-14.78-9.16-24.86-24.66-25.59-11.61-.55-23.26,0-34.89-.31-5.1-.13-6.11,2.28-6,6.68C1436.49,1339.32,1436.31,1345.64,1436.32,1352Z" transform="translate(1202.04 -514.96)" fill="#0359a9"/><path d="M2020.34,1452.18c-2.14,1.45-4.51.48-6.71.81-8.28,1.22-12.85-1.91-16.5-10-5.34-11.8-13-22.54-19.4-33.87-4.65-8.24-9-16.68-13.3-25.09-.78-1.51-1.36-3-3.52-3.94-9.66,9.71-18.11,20.74-26.9,31.47-2.12,2.6-1.86,5.57-1.86,8.54,0,9-.39,18,.11,27,.36,6.49-3.52,5.88-7.64,5.9s-8,.4-7.83-5.83c.29-12.32.07-24.66.07-37q0-45,.06-90c0-2.45-1.3-5.91,1.94-7a18.58,18.58,0,0,1,11.79,0c2.44.81,1.45,4.12,1.46,6.35q.08,30,0,60v12.08c3.9-4.91,6.54-8.28,9.23-11.62q26.19-32.37,52.33-64.77a6.3,6.3,0,0,1,5.13-2.43c4.89-.16,9.79-.06,16.62-.06-8,10-14.94,18.69-21.92,27.29-6.47,8-12.77,16.12-19.69,23.69-3,3.31-1.1,5.6.25,7.89,13.85,23.62,27.89,47.14,41.8,70.72C2017.7,1445.43,2020.24,1448.26,2020.34,1452.18Z" transform="translate(1202.04 -514.96)" fill="#0359a9"/><path d="M1655,1453c-5.55,0-9.76-.11-14,0-3,.1-4.63-1-6.29-3.61-8.29-13.28-15.6-27.11-23.35-40.69-5.33-9.31-10.93-18.47-16.64-28.08-4.1,1.54-5.66,5.48-8.21,8.27-5.37,5.88-10.51,12-15.64,18.09-3.49,4.16-5.55,8.69-5.19,14.51.52,8.3,0,16.66.2,25,.13,4.48-.94,6.59-6,6.61-9.41,0-9.56.29-9.56-9q0-61.49.06-123c0-2.72-1.72-6.63,2-7.94a18.34,18.34,0,0,1,11.8,0c2.67.91,1.64,4,1.64,6.23.07,19.66,0,39.32,0,59v10.78c2.51,1,3.43-.64,4.29-1.9,16.68-24.3,36.9-45.8,54.66-69.24,2.85-3.75,5.93-5.94,10.81-5.52,3.64.3,7.31.06,11.75.06-2.57,8.29-9.23,13-13.72,19.15a326.27,326.27,0,0,1-23.81,29.27c-4.53,4.89-3.41,8.17-.57,12.91,12.38,20.67,24.5,41.5,36.64,62.32C1648.81,1441.31,1651.46,1446.53,1655,1453Z" transform="translate(1202.04 -514.96)" fill="#0359a9"/><path d="M2037.75,1381.75c.41-11,.15-22.93,1.62-34.92,1.42-11.57,7.05-19.83,15.9-25.89,25.64-17.57,57.93-10,72.92,11.85,5,7.28,6.9,15.81,7.34,24.46q1.29,25.44,0,50.92c-1.12,23.43-14.56,37.3-32,43.51a55.19,55.19,0,0,1-39.74-1.38c-12-5-20.17-14.7-23.47-27.86S2038,1396,2037.75,1381.75Zm81.95,1.45h0c0-9.64.83-19.36-.18-28.89-1.88-17.71-15.92-29.56-33.26-29.27s-30.68,12.57-32.24,30.46a334.23,334.23,0,0,0,0,54.8c.58,7.47,3,14.33,8.47,19.73,9.85,9.69,21.48,13.07,34.74,8.77s21.12-13.82,22.37-27.71C2120.37,1401.86,2119.7,1392.5,2119.7,1383.2Z" transform="translate(1202.04 -514.96)" fill="#0359a9"/><path d="M1385.82,1383.44c0,8.66.35,17.33-.07,26-1.22,25.73-21.49,45.54-49.56,44.87-14.54-.34-27.77-3.93-37.62-15.8-4.49-5.41-7.64-11.08-8.53-18.26a309.36,309.36,0,0,1,.15-76.62c.61-4.91,3-8.89,5.58-12.27,11.58-15.35,27.69-21.94,46.53-19.7,14.44,1.72,27.1,8,35.72,20.61,5.22,7.62,7.37,16.25,7.79,25.26.4,8.63.08,17.3.08,26Zm-81.55-1c-.64,10.62-1.49,21.35.63,31.83a32.48,32.48,0,0,0,33.88,26.33c16.66-.95,29.43-12.78,31.12-29.52a288.71,288.71,0,0,0,0-56.77c-1.09-11.4-6.8-20-17.06-25.31-21.17-11-45.57,1.64-48.39,25.54C1303.36,1363.71,1304.27,1373.12,1304.27,1382.43Z" transform="translate(1202.04 -514.96)" fill="#0359a9"/><path d="M-310.65,1589c-3.51,8.77-10.5,13.77-15.25,20.37A355.1,355.1,0,0,1-349,1637.88c-3.94,4.42-3.35,7.89-.73,12.31q22.72,38.3,45.25,76.72c.13.22,0,.62-.13,1.79-3.12,1.18-6.74.22-10.16.64-4.58.55-7.17-1.43-9.41-5.43-10.89-19.46-22.07-38.75-33.17-58.1-1.78-3.11-3.66-6.17-6.25-10.51-9.7,11.7-18.81,22.62-27.82,33.62-1.83,2.23-1.15,5.12-1.17,7.74-.06,9-.18,18,0,27,.1,4.39-1.69,5.64-5.89,5.75-9.45.25-9.61.37-9.62-8.82q0-61.46,0-122.9c0-2.81-1.48-6.83,1.77-8.13a16.55,16.55,0,0,1,11.76,0c3.06,1.17,1.82,4.64,1.83,7.13.09,19.32.05,38.64.05,58v9.58l1.78.64c7.41-9,14.88-17.91,22.22-26.95q18.1-22.34,36-44.81c2.25-2.83,4.59-4.45,8.33-4.22C-320,1589.15-315.76,1589-310.65,1589Z" transform="translate(1202.04 -514.96)" fill="#0359a9"/><path d="M-.37,1383a280,280,0,0,1-1.14,29C-4,1439-26.74,1456.1-53.39,1454c-9.72-.75-19.53-1.59-27.74-8.8-9.51-8.35-16.25-17.32-16.84-30.66a682,682,0,0,1,.39-69.91c.39-6.59,4.55-12.31,8.92-17.06,14.91-16.2,33.88-19.91,54.05-13.92,19.4,5.77,31,19.52,33.12,40.38A259.18,259.18,0,0,1-.37,1383Zm-15.45-.11c-.42-10.61.52-21.28-1.78-31.81-3.47-15.87-16.81-26.48-33-26s-29.38,11.75-31.51,27.84a226.7,226.7,0,0,0,0,59.68c2.13,16.14,15.07,27.44,31.34,28a32.55,32.55,0,0,0,33.21-25.9C-15.29,1404.17-16.25,1393.51-15.82,1382.9Z" transform="translate(1202.04 -514.96)" fill="#0359a9"/><path d="M1182.31,1391.62c19.9-24.64,38.77-47.11,56.53-70.44,7.16-9.4,15.34-9.28,26.44-7.84-7.8,9.64-14.76,18.29-21.78,26.89-6.51,8-13,15.94-19.68,23.74-1.89,2.19-1.74,3.51-.28,6q20.32,34,40.24,68.24c2.64,4.52,5.88,8.8,6.93,14.08-.51.25-.77.48-1,.49-16.9,1-16.56.85-24.68-14.51-6.08-11.49-13.39-22.33-19.7-33.71-3.49-6.28-7-12.52-10.62-18.73-2.34-4-4.34-5.08-7.37-1.56-8,9.3-15.8,18.78-23.64,28.21-1.88,2.27-1.33,5.07-1.34,7.69,0,9-.38,18,.09,27,.35,6.45-3.53,5.81-7.64,5.89-4.33.09-7.67.06-7.53-6.08.36-15.65.11-31.31.11-47,0-27,0-54,0-81,0-6.47.25-6.26,7.94-6.46,4.74-.12,7.19.69,7.1,6.43-.34,20.31-.13,40.64-.13,61Z" transform="translate(1202.04 -514.96)" fill="#0359a9"/><path d="M34.28,1382.66q0-31,0-62c0-7.88.11-8,7.35-8.06q36.48-.11,73,0c2.44,0,5.92-1.24,6.86,2.17a15,15,0,0,1-.27,9.84c-1.12,2.55-4.06,1.69-6.29,1.7-17.65,0-35.31,0-53,0-14,.08-12-1.56-12.1,12.26-.11,10.33.14,20.66-.1,31-.1,4.44,1.65,5.69,5.84,5.65,16.32-.15,32.65.08,49-.13,4.78-.06,6.49,1.79,6.56,6.39.11,6.56-.32,7.33-7.13,7.37-15.66.1-31.32,0-47,.06-7,0-7.1.18-7.16,7.21-.09,12.32.18,24.65-.12,37-.12,5,1.74,6.2,6.38,6.15,19.32-.19,38.64-.12,58,0,7.79,0,8.12.78,7.83,8.71-.16,4-1.94,5-5.54,5-25.32-.07-50.64-.13-75.95,0-4.9,0-6.25-1.78-6.21-6.43C34.38,1425.31,34.28,1404,34.28,1382.66Z" transform="translate(1202.04 -514.96)" fill="#0359a9"/><path d="M1678.28,1382.25c0-20.64,0-41.28,0-61.92,0-7.53.14-7.67,7.7-7.69q36.46-.11,72.91,0c2.39,0,5.86-1.26,6.62,2.45.66,3.21,1.12,6.85-.45,9.81-1.2,2.26-4.2,1.44-6.47,1.45-18,0-35.95,0-53.93,0-12.15,0-10.79-1-10.85,10.52-.06,10.32-.08,20.64,0,31,.06,7.22.15,7.31,8,7.35,15.32.06,30.63.11,45.94,0,4.63,0,7.69.75,7.75,6.36.07,6.56-.26,7.34-7.14,7.38-15.65.1-31.3,0-46.94.06-7.42,0-7.51.14-7.56,7.81q-.12,17.48,0,35c.05,7.35.14,7.45,7.82,7.47,19,.07,38,0,56.93.06,7.22,0,7.08.27,7.29,7.21.14,4.49-.93,6.61-6,6.56q-37.45-.32-74.9,0c-5.27,0-6.82-1.78-6.77-6.91C1678.41,1424.87,1678.28,1403.56,1678.28,1382.25Z" transform="translate(1202.04 -514.96)" fill="#0359a9"/><path d="M266.11,1658.55c0-20.66,0-41.32,0-62,0-7.45.15-7.58,7.83-7.6q36-.09,72,0c6.88,0,10.21,5.46,7.38,11.72-1.28,2.84-3.87,2.09-6,2.1-13.33.07-26.66,0-40,0-7,0-14,.12-21,0-3.47-.07-4.68,1.39-4.66,4.74.09,13,.19,26-.05,39-.09,4.8,2.36,5.38,6.18,5.36q24-.14,48,0c6.68,0,6.76.34,6.8,6.73s0,6.6-6.65,6.64c-15.66.11-31.33,0-47,.06-7.05,0-7.18.17-7.24,7.17-.1,11.66-.08,23.33,0,35,0,8.21.11,8.32,8.05,8.35,17.33.07,34.66,0,52,0,2,0,4-.12,6,0,5.5.45,5.85,1.36,6,7.89.14,4.63-1.95,5.58-6,5.56-19.66-.11-39.33,0-59,0-5.33,0-10.68-.27-16,.07s-6.86-1.61-6.78-6.84c.27-19.33.1-38.66.1-58Z" transform="translate(1202.04 -514.96)" fill="#0359a9"/><path d="M-216.09,1452.07c-1.84,1.26-3.88.87-5.83.9-10.1.14-10.66.15-13.34-9-1.9-6.49-6.06-12.22-6.24-19.25-.08-3.17-2.37-3.58-4.89-3.58-17.3,0-34.6.15-51.89-.1-4.43-.06-5.79,2.62-7,5.71-2.65,7.07-4.95,14.28-7.58,21.36-1.58,4.22-13,7.2-16,4-1.91-2-.9-4.73.06-7.28q7.06-18.78,13.82-37.68c8.28-23.11,17.43-45.9,25.15-69.22,2.29-6.94,5.72-13.55,7.88-20.61,1.73-5.66,6.47-4.45,10.65-4.78s5.73,1.54,7.07,5.23q23.87,65.75,48,131.37A8.73,8.73,0,0,1-216.09,1452.07Zm-55.2-114.43-2.13.25c-8.17,23-16.35,46.1-24.73,69.73h51.44C-255.16,1383.57-263.22,1360.6-271.29,1337.64Z" transform="translate(1202.04 -514.96)" fill="#0359a9"/><path d="M327.2,1452.6c4.47-12.95,8.51-25.67,13.24-38.13,11-29,22.29-57.87,31.88-87.38.79-2.44,3-4.51,3.41-6.95.91-5.68,3.93-7.58,9.44-7.65,4.95-.06,7.63,1.11,9.38,6.36,6.14,18.41,12.88,36.64,19.57,54.87q13.06,35.65,26.46,71.19a23.19,23.19,0,0,1,1.56,6.95c-2.61,1.91-5.63.91-8.43,1.1-5.13.34-8.29-1-9.66-7.07-1.66-7.38-5.4-14.28-7.77-21.53-.79-2.41-1.82-3.19-4-3.19-17.67,0-35.33.07-53,0-3.84,0-5.16,2.28-6.2,5.25q-3.26,9.31-6.54,18.61c-2.83,8-2.83,8-10.95,8C332.91,1453,330.26,1452.74,327.2,1452.6Zm32.57-44.24c15.89,0,30.17.08,44.44,0,7.08-.06,7.39-.53,5-7.57Q399.24,1372,389,1343.43c-.68-1.91-.33-4.77-4-5.78Z" transform="translate(1202.04 -514.96)" fill="#0359a9"/><path d="M769.15,1453c3.62-16.1,10.35-30,15.39-44.58,10.36-29.91,21.83-59.44,32.63-89.21,2-5.36,5.35-6.55,10.58-6.74,5.66-.2,6.86,2.62,8.54,7.26C852,1363,868,1406.15,883.93,1449.35a12.56,12.56,0,0,1,.17,2.78c-3.84,1.65-8.11.89-12.17.68-2.57-.14-4.9-1.22-5.57-4.57-1.57-7.91-7-14.58-7.69-22.78-.3-3.58-2.29-4.32-5.33-4.31-17.32,0-34.65.13-52-.07-3.92,0-5.21,2.15-6.29,5.08-2.4,6.49-5.32,12.84-7,19.5-1.52,6-4.58,8.17-10.49,7.38C775,1452.69,772.3,1453,769.15,1453Zm32.34-44.62c15.82,0,30.06.08,44.3,0,7.28-.06,7.57-.44,5.15-7.43-6.85-19.77-13.85-39.49-20.78-59.24-.54-1.53-.72-3.31-3.43-3.91Z" transform="translate(1202.04 -514.96)" fill="#0359a9"/><path d="M2410,1367.81c0-16.33.27-32.65-.14-49-.15-6,2.75-6.35,7.29-6.28,7.85.12,8.24.07,8.26,6.25.1,27.31,0,54.62.11,81.94,0,5.92.07,11.78,1.65,17.73,5.71,21.54,34.74,29.09,52.4,14.44,9.8-8.13,13.11-18.53,13.24-30.25.31-27.31.06-54.63.12-82,0-8.24.15-8,8.35-8.19,4.83-.09,7.09.88,7,6.52-.28,30,.51,60-.35,89.93-.71,24.56-18.61,47.09-51.69,45.08-10-.6-20.43-.93-28.84-8.51-9.89-8.9-16.92-19.08-17.12-32.78-.23-15-.05-30-.05-45Z" transform="translate(1202.04 -514.96)" fill="#0359a9"/><path d="M1893.24,1452.47c-16.9,1.16-16.86,1.15-21.59-14.92-1.53-5.2-1.92-11.81-5.38-15.07-3.86-3.65-10.8-1.18-16.39-1.27-12.64-.19-25.29.09-37.93-.14-4.35-.08-6.73,1.5-8,5.57-2.1,6.55-4.75,12.93-6.67,19.53-1.52,5.21-4.11,7.94-9.81,6.85-2.24-.43-4.65.47-7.3-1-1-8.51,3.59-16,6.33-23.51,6.52-18,13.25-35.9,19.66-53.94,6.85-19.27,14.31-38.32,21.13-57.6,1.7-4.8,5-4.35,8.54-4.36,3.92,0,7.45-.58,9.26,5,5.41,16.55,11.57,32.86,17.56,49.23q15.24,41.63,30.6,83.22A8.78,8.78,0,0,1,1893.24,1452.47Zm-30.65-44.6-25.68-73-26,73Z" transform="translate(1202.04 -514.96)" fill="#0359a9"/><path d="M-658.5,1728.36c-.88.46-1.17.72-1.48.74-13.29.82-13.3.82-17.58-11.32-1.77-5-3.57-10-5.21-15.09-1.17-3.61-3.2-5.25-7.26-5.2q-25,.3-50,0c-4,0-6.09,1.5-7.29,5.15-2.29,6.95-5,13.76-7.13,20.76-1.38,4.58-3.88,6.45-8.64,6-3.26-.33-6.59-.06-11.09-.06,3.72-10.37,7-19.86,10.52-29.3q9.43-25.65,19-51.27c6.85-18.24,14.29-36.28,20.44-54.75,2.09-6.28,5.93-4.42,9.75-5.1,4.74-.86,6.56,1.92,7.88,5.6,5.1,14.23,10.13,28.49,15.31,42.7q16.2,44.46,32.52,88.88A9.85,9.85,0,0,1-658.5,1728.36Zm-30.61-44.16c-8.59-24.4-16.72-47.51-25.65-72.9l-25.92,72.9Z" transform="translate(1202.04 -514.96)" fill="#0359a9"/><path d="M1330.5,1728.7c-14.47,1.27-14.3,1.2-19.17-11.69-2.33-6.18-2.53-14.35-7.6-18-5.46-3.94-13.52-1.2-20.43-1.37-9.66-.23-19.33-.1-29,0-12.45.08-10-1.24-14.34,10.53-2,5.3-3.72,10.68-5.72,16-1.79,4.71-12.91,7.6-16.75,4.32-1.74-1.49-1-3.37-.26-5.36,4.48-12,8.75-24,13.15-36,10.79-29.39,22.54-58.44,32-88.32,2.54-8,5-9.49,11.21-9.9,5.12-.34,7.5,1.42,9.27,6.45,8,22.64,16.49,45.08,24.72,67.63,7,19.16,13.81,38.39,20.86,57.53A26.11,26.11,0,0,1,1330.5,1728.7Zm-82.13-44.43H1300c-8.39-23.9-16.55-47.13-24.71-70.35l-1.83-.07C1265.28,1636.83,1257.09,1659.82,1248.37,1684.27Z" transform="translate(1202.04 -514.96)" fill="#0359a9"/><path d="M1354.27,1658.54c0-20.33,0-40.65,0-61,0-8.52.1-8.59,8.86-8.6,15.32,0,30.69-.67,46,.21,28.09,1.61,42,20.14,40.93,43.8-.8,18.43-15.9,38.17-37,38.35-12,.1-24,.11-36,.27-7.09.09-7.23.19-7.28,7.19-.09,14,.06,28-.1,42,0,2.74,1.67,6.67-1.91,8a18.14,18.14,0,0,1-11.8,0c-2.73-.92-1.71-4-1.72-6.18-.06-19.33,0-38.65,0-58Zm15.55-28.33c0,7.64,0,15.29,0,22.93,0,3,.63,5.28,4.3,5.19,12.28-.29,24.62,1,36.83-.72,16.33-2.34,24.56-12.59,23.81-28.85-.71-15.38-10.14-25-26.1-25.73-11-.52-21.94.06-32.9-.3-5.14-.17-6.15,2.09-6,6.54C1370,1616.24,1369.82,1623.23,1369.82,1630.21Z" transform="translate(1202.04 -514.96)" fill="#0359a9"/><path d="M1478.27,1658.67c0-20.63,0-41.25,0-61.88,0-7.67.13-7.79,7.59-7.82,15.63-.07,31.3-.68,46.89.16,28.48,1.54,42.83,20.17,41.19,44.31-1.36,20.09-15.14,36.89-36.07,37.75-12.29.5-24.61.22-36.91.4-7,.1-7.1.19-7.15,7.3-.09,14,.06,27.94-.1,41.91,0,2.73,1.68,6.65-1.93,8a18.18,18.18,0,0,1-11.77,0c-2.74-.92-1.72-4-1.73-6.16-.06-19.3,0-38.59,0-57.89Zm15.56-28.2c0,7.65.05,15.31,0,23,0,3.22,1.12,5,4.59,4.92,12.61-.39,25.3,1.15,37.84-.93,15.14-2.52,23-12.37,22.6-27.94-.34-15.11-9.28-25.27-24.43-26.28-11.92-.79-23.93-.22-35.9-.38-3.42,0-4.75,1.33-4.7,4.71C1493.92,1615.17,1493.84,1622.82,1493.83,1630.47Z" transform="translate(1202.04 -514.96)" fill="#0359a9"/><path d="M-630.38,1383q0-31,0-61.93c0-8.31.09-8.41,7.86-8.43q36-.08,71.92,0c2.43,0,5.86-1.33,7,1.92a14,14,0,0,1-.15,9.78c-1.12,2.81-3.94,2-6.13,2-15.65.07-31.3,0-47,0-4.33,0-8.66.17-13,0s-5.74,1.83-5.68,6c.15,12.32.25,24.65,0,37-.12,5.15,2.23,6.06,6.63,6,15.65-.16,31.3-.1,46.95,0,7.48,0,10.3,4.25,7.88,11.32-1.09,3.17-3.67,2.33-5.81,2.34-13.31.08-26.63,0-40,0-15.6,0-15.6,0-15.6,15.9,0,8.32,0,16.65,0,25,0,9.33.07,9.38,9.07,9.41,17,0,34,0,50.94,0,2,0,4-.09,6,0,2.19.13,5-.74,5.88,2.31.87,3.23,1.15,6.76-.26,9.79-1.15,2.46-4.12,1.55-6.34,1.56q-28,.08-55.93,0c-5.33,0-10.66,0-16,0-8.18-.08-8.28-.1-8.3-8.06C-630.42,1424.27-630.38,1403.63-630.38,1383Z" transform="translate(1202.04 -514.96)" fill="#0359a9"/><path d="M2169,1367.84c0-18.64,0-33.95,0-49.27,0-2.17-.73-5.26,2.46-5.64,3.85-.45,8.17-1.58,11.56.81,2.32,1.62,1,5,1,7.56.08,27.3,0,54.61.07,81.91,0,8.36,1,16.4,6,23.64,8.28,12.15,26.07,17.38,39.63,11.4,14.68-6.48,21.88-18.11,22.09-33.71.38-27.63.08-55.27.17-82.91,0-2.86-1.51-6.91,1.47-8.32,3.49-1.65,7.83-1,11.77-.27,2.1.4,2.09,2.32,2.13,4,.07,3.33,0,6.66,0,10,0,25.3.06,50.61,0,75.92,0,13.63-3.25,26.2-13,36.46-10.55,11.13-23.84,15.61-38.69,14.78-8-.44-16.16-1-23.66-5.26-12.53-7.06-20.33-17-22.05-31.49C2167.94,1399.81,2169.61,1382.15,2169,1367.84Z" transform="translate(1202.04 -514.96)" fill="#0359a9"/><path d="M-759.37,1436c1.71-2,3-3.54,4.34-5,6.08-6.31,6.16-6.38,12.63-.94,12.43,10.44,26.89,12,42.13,9.49,11.33-1.86,18.5-9.07,22.57-19.48,3.21-8.19-2-19.72-9.79-24.31-12.23-7.15-26.16-6.67-39.34-9.22-14.89-2.87-25.69-13.46-27.18-28.48a67.08,67.08,0,0,1,.82-20.87c2.5-11.4,10.7-18.6,21.46-22.13,22.9-7.53,44.18-4.62,63,10.71.08,3-1.87,4-3.18,5.42-5.79,6-5.83,6-12.78,1.65-9.38-5.91-19.34-10-30.66-7.86-18.58,3.43-26.74,13.91-23.24,32,1.94,10.06,9.53,13.76,18.14,15.89,10.29,2.53,20.87,3.53,31.26,5.83,26.49,5.87,34.58,36,21.33,56.82-6,9.46-14.82,14.42-25.39,17-13.59,3.25-27.45,2.13-40.66-.38C-743.41,1450.39-752.15,1444.12-759.37,1436Z" transform="translate(1202.04 -514.96)" fill="#0359a9"/><path d="M1771,1658.87c0-20.65,0-41.31,0-62,0-7.77.17-7.92,7.57-7.94q36.48-.1,73,0c6.56,0,6.56.22,6.58,6.77,0,6.73,0,7-6.36,7-19.32.11-38.65,0-58,.06-7.66,0-7.75.14-7.81,7.58-.08,10.66,0,21.32,0,32,0,9.35.06,9.41,9.08,9.44,15,.06,30-.07,45,.06,7.15.07,7.34.74,7.69,7.22.26,4.9-1.59,6.33-6.3,6.26-15.65-.21-31.31-.11-47-.06-8.33,0-8.42.11-8.47,8-.08,12,.24,24-.13,36-.17,5.44,2,6.83,7,6.79,19.32-.17,38.64-.13,58,0,7.27,0,7.14.37,7.43,7.11.21,4.87-1.56,6.27-6.29,6.24q-37.49-.29-75,0c-5.14,0-6.06-2.14-6-6.56C1771.09,1701.52,1771,1680.19,1771,1658.87Z" transform="translate(1202.04 -514.96)" fill="#0359a9"/><path d="M2755,1658.94q0-30.46,0-60.94c0-8.93.1-9,8.47-9q36-.07,71.93,0c2.21,0,5.36-1,6.3,1.54a15.17,15.17,0,0,1-.06,10.78c-1,2.5-4.13,1.48-6.35,1.49-17.65.06-35.3,0-52.95,0-2.33,0-4.67.13-7,0-3.81-.24-5.31,1.38-5.27,5.24.14,12.65.25,25.31,0,38-.12,5.18,2.32,6.09,6.66,6,13-.14,26,0,39,0,3.33,0,6.67.2,10,0,4.82-.33,6.4,1.77,6.23,6.47-.23,6.33-.21,6.78-6.61,6.83-15.65.11-31.3,0-47,.06-8,0-8.11.12-8.16,8.29q-.1,17,0,34c0,8.23.11,8.36,8.12,8.4q29,.12,57.94,0c3.89,0,6.14.71,6.18,5.39.06,7.46.07,7.9-7.46,7.92q-36.46.1-72.93,0c-6.81,0-7-.19-7-7.39C2755,1700.9,2755,1679.92,2755,1658.94Z" transform="translate(1202.04 -514.96)" fill="#0359a9"/><path d="M2367.37,1659.22c0-21-.06-42,0-62.94,0-7.13.18-7.29,7.09-7.31q36.46-.1,72.93,0c2.25,0,5.41-1,6.44,1.39a14.42,14.42,0,0,1,.07,10.75c-1,2.63-4,1.67-6.24,1.68-17.32.06-34.63,0-51.95,0-2.33,0-4.67.16-7,0-4.49-.37-6.66,1-6.53,6.06.32,12.32.3,24.65,0,37-.12,5,1.78,6.32,6.41,6.26,14.32-.19,28.64-.07,42.95-.07,2,0,4-.07,6,0,6.23.28,6.19.61,6.49,7.11.22,4.89-1.61,6.31-6.31,6.25-15.65-.22-31.31-.12-47-.07-8.33,0-8.42.11-8.47,8-.08,12,.22,24-.13,36-.16,5.36,1.83,6.87,6.89,6.81,17.65-.21,35.3-.08,52.94-.08,2,0,4-.09,6,0,2.21.13,5.23-.81,6.08,2a15.78,15.78,0,0,1-.14,9.82c-.61,1.66-2.81,1.42-4.46,1.42-25.64,0-51.29-.08-76.93.08-4.82,0-5.27-2.43-5.25-6.22C2367.41,1701.84,2367.37,1680.53,2367.37,1659.22Z" transform="translate(1202.04 -514.96)" fill="#0359a9"/><path d="M-1072.64,1658.57c0-20.66,0-41.33,0-62,0-7.48.17-7.6,7.81-7.62q36-.09,72,0c2.25,0,5.43-1,6.44,1.37a15,15,0,0,1,.1,10.77c-1,2.68-4,1.67-6.22,1.67-18,.07-36,0-54,0-12.62,0-11.13-1.09-11.2,11.25q-.09,15,0,30c.06,7.71.13,7.84,7.57,7.89,13.67.1,27.33,0,41,0,2.33,0,4.67.17,7,0,5.11-.34,5.88,2.55,6,6.84.08,4.5-1.08,6.6-6.07,6.53-15.66-.23-31.33-.12-47-.06-8.32,0-8.41.11-8.46,8-.08,12,.23,24-.13,36-.17,5.45,2,6.8,7,6.75,17.33-.2,34.66-.08,52-.08,2.33,0,4.67-.08,7,0,6,.27,6,.6,6.26,7.26.22,5-1.83,6.13-6.42,6.1-24.66-.18-49.33-.22-74,0-5.32.06-6.78-1.75-6.73-6.85C-1072.51,1701.23-1072.63,1679.9-1072.64,1658.57Z" transform="translate(1202.04 -514.96)" fill="#0359a9"/><path d="M193,1699.82c3.17-15.71,8.55-29.26,12.66-43.22,4.67-15.89,10-31.59,15.37-47.26,1.78-5.19,2.57-10.62,4.64-15.77,1.17-2.91,1.93-4.6,5.08-4.54,4.25.08,8.56-.71,13.5.9-5.49,16.43-11,32.63-16.3,48.86-9.23,28-18.58,56-27.36,84.21-1.68,5.38-4.3,6.23-9.16,6.47-5.52.27-7.35-2.64-8.88-7-10.76-30.81-20.33-62-30.23-93.1-4.22-13.25-8.81-26.39-13.27-39.67,16.11-1.82,16.09-1.82,20.87,13q13.94,43.15,28,86.29C189,1692.25,189.63,1695.85,193,1699.82Z" transform="translate(1202.04 -514.96)" fill="#0359a9"/><path d="M1070.87,1659.45c0-20.67-.06-41.33,0-62,0-8.36.21-8.47,8.08-8.49q36-.09,72,0c2.24,0,5.38-1,6.44,1.38a14.74,14.74,0,0,1,.14,10.74c-.93,2.66-4,1.69-6.23,1.7-18,.06-36,0-54,0-12.63,0-11.11-1.1-11.18,11.26-.07,11,.24,22-.12,33-.18,5.38,1.84,6.92,6.93,6.85,15.66-.21,31.33,0,47-.09,4.34,0,7.89.21,7.78,6.21-.13,6.85-.14,7.42-7.07,7.48-14.33.11-28.66,0-43,0-13.15,0-11.46-1-11.52,12-.07,14.33,0,28.67-.05,43,0,6.75-.19,6.75-7.56,6.73s-7.6,0-7.64-6.85C1070.8,1701.45,1070.87,1680.45,1070.87,1659.45Z" transform="translate(1202.04 -514.96)" fill="#0359a9"/><path d="M872,1589.5c-6,12.1-11.25,23.54-17.3,34.54-7.43,13.53-13.87,27.54-21,41.19-2.27,4.33-2.81,8.73-2.8,13.41q0,22.47,0,44.95c0,2.17.66,5.22-2.69,5.45-3.86.26-8,1.48-11.52-1-1.7-1.2-.85-3.73-.86-5.66,0-14.65-.08-29.31,0-44a22.64,22.64,0,0,0-2.87-11.26c-12-22.51-23.56-45.23-35.29-67.88-1.5-2.88-3.44-5.57-3.73-9,.2-1.36,1.42-1.1,2.19-1.15,13.57-.92,13.58-.91,19.39,10.85q13.34,27,26.63,53.92c1.18-.41,2.08-.47,2.18-.79,6-17.74,17.09-33,24.14-50.2.12-.3.18-.63.31-.93C854.72,1588.34,854.72,1588.34,872,1589.5Z" transform="translate(1202.04 -514.96)" fill="#0359a9"/><path d="M922.11,1389.89c0-18.63,0-37.25,0-55.88,0-7.43-.15-7.5-7.77-7.58-8.64-.09-17.29.08-25.94-.06-6.67-.1-6.66-.23-6.76-6.68-.1-6.79-.09-7,6.19-7q41.91-.14,83.82,0c6.36,0,6.42.32,6.35,6.95s-.09,6.65-6.71,6.76c-8.64.14-17.29,0-25.94.06-7.52.07-7.65.14-7.66,7.65q-.07,50.89,0,101.79c0,4-.18,8,0,12s-1.68,5.37-5.36,5.15a22.16,22.16,0,0,0-4,0c-4.76.57-6.44-1.42-6.31-6.23.28-10.64.08-21.29.08-31.93Z" transform="translate(1202.04 -514.96)" fill="#0359a9"/><path d="M1030,1389.67c0-18.65,0-37.29,0-55.94,0-7.09-.17-7.2-7.11-7.29-9-.12-18,.08-27-.07-6.13-.1-6.08-.4-6.28-7.23-.13-4.27.46-6.68,5.82-6.64q42.45.38,84.91,0c5.61,0,5.56,3,5.58,7s-.2,7.17-5.65,7c-8.65-.28-17.31-.11-26-.06s-8.81.09-8.82,8.57q-.08,39,0,77.92c0,11.32.11,22.64-.05,34-.09,6.08-.52,6-8.36,6.19-4.74.09-7.27-.73-7.17-6.45C1030.15,1427.63,1030,1408.65,1030,1389.67Z" transform="translate(1202.04 -514.96)" fill="#0359a9"/><path d="M726.14,1666.92c0,18,0,36,0,53.95,0,8.33-.09,8.33-6.87,8.43-8.21.13-8.35.13-8.37-8.13q-.1-45.45,0-90.92c0-6,0-12,0-18,0-10.06.27-9.46-9-9.45-8.66,0-17.33-.25-26,.08-5.58.22-5.66-3-5.62-7s-.13-7.1,5.52-7.06c28.64.2,57.28.16,85.92.05,6.08,0,4.68,4.16,4.88,7.58.22,3.65-.16,6.52-5.14,6.39-9.31-.25-18.64-.14-28,0-7.09.08-7.24.18-7.27,7.12C726.09,1629,726.14,1647.94,726.14,1666.92Z" transform="translate(1202.04 -514.96)" fill="#0359a9"/><path d="M1602.28,1658.91c0-21,0-41.93,0-62.9,0-2.4-1.33-5.93,2.39-6.68s8-1,11.77.37c1.25.46,1.28,2.2,1.29,3.54q0,3.49,0,7,0,53.91,0,107.83c0,7.6.15,7.74,7.66,7.77,19,.08,37.94-.06,56.91.08,6.82,0,7.14.87,7.31,7.56.11,4.21-1.18,5.92-5.61,5.9q-38-.21-75.88,0c-5.07,0-6.06-2.09-6-6.58C1602.37,1701.51,1602.28,1680.21,1602.28,1658.91Z" transform="translate(1202.04 -514.96)" fill="#0359a9"/><path d="M2305.62,1382.9c0-21,0-42,.05-63,0-2.43-1.35-6.11,2-6.9,3.74-.89,8-1.49,11.65.49,2.31,1.27,1.2,4.27,1.21,6.49.07,23,0,46,.05,69,0,14.32-.07,28.65,0,43,0,7.11.18,7.26,7.15,7.3,19,.08,38,0,57,0,7.62,0,7.66.39,7.68,7.79,0,4.06-1,6-5.54,6-25-.16-50-.26-75,.07-5.94.07-6.35-2.71-6.32-7.26C2305.69,1424.87,2305.62,1403.89,2305.62,1382.9Z" transform="translate(1202.04 -514.96)" fill="#0359a9"/><path d="M-209.06,1442c1.41-1.68,2.75-3.5,4.3-5.12,4.84-5,5.66-5.1,11.77-1.34,16.75,10.33,35.07,5.11,42.36-12.65a53.88,53.88,0,0,0,3.57-20.94c-.21-27-.1-54,0-80.93,0-2.57-1.18-6.09,1.29-7.47,3.52-2,7.79-1,11.74-.53,1.54.18,1.91,1.62,2,3,.07,1.67.09,3.33.09,5,0,30,.1,60,0,89.92-.06,13.15-4.58,24.34-14.5,33.59-7.09,6.61-15.46,8.86-24.38,9.41C-184.94,1454.76-198.74,1454-209.06,1442Z" transform="translate(1202.04 -514.96)" fill="#0359a9"/><path d="M-280,1659.31c0-21,0-42,.05-63,0-2.44-1.3-6,2-6.93a20.87,20.87,0,0,1,11.82.18c1.29.4,1.49,2.06,1.51,3.43q0,3,0,6v119.92c0,2-.06,4,0,6,.06,2.83-1.14,4.38-4.11,4.33a41.5,41.5,0,0,0-5,.06c-4.55.46-6.65-1-6.44-6.07.36-9,.1-18,.1-27Z" transform="translate(1202.04 -514.96)" fill="#0359a9"/><path d="M1111.78,1381.94c0-20.63,0-41.27.06-61.9,0-2.43-1.39-6,1.92-7a20.18,20.18,0,0,1,11.79.21c1.35.45,1.43,2.09,1.46,3.41,0,2.33,0,4.66,0,7q0,58.9,0,117.81a19.88,19.88,0,0,1,0,3c-.42,2.76,1.43,6.79-2.16,7.89-3.34,1-7.21.42-10.85.3-1.54-.06-2-1.49-2.11-2.87-.11-2.32-.13-4.65-.13-7Q1111.78,1412.39,1111.78,1381.94Z" transform="translate(1202.04 -514.96)" fill="#0359a9"/><path d="M-512.21,1382.29c0-21,0-41.93,0-62.89,0-6.78.18-6.78,7.5-6.78s7.69,0,7.7,6.73q.12,63.39,0,126.79c0,2.45,1,6-2.69,6.53s-8.08,1.54-11.52-.85c-2-1.41-1-4.37-1-6.63C-512.24,1424.23-512.21,1403.26-512.21,1382.29Z" transform="translate(1202.04 -514.96)" fill="#0359a9"/><path d="M2323.38,1729.21H2315c-4.5-.81-3.07-4.5-3.11-7.13-.18-10.33-.08-20.66-.08-31q0-47,0-94c0-2.56-1.21-6.16,1.38-7.42,3.55-1.72,7.78-1,11.72-.36,1.65.25,1.81,1.78,2,3.08a33,33,0,0,1,.17,4q0,62.49-.06,125C2327,1724.33,2328.49,1728.42,2323.38,1729.21Z" transform="translate(1202.04 -514.96)" fill="#0359a9"/><path d="M644.31,1658.9q0,30.9,0,61.82c0,8.65-.08,8.65-7.67,8.59-7.13-.06-7.24-.06-7.25-8.07q-.06-62.31,0-124.63c0-2.52-1.15-6.19,1.83-7.15a16.61,16.61,0,0,1,11.64.23c2.4,1.08,1.4,4.18,1.4,6.4Q644.36,1627.49,644.31,1658.9Z" transform="translate(1202.04 -514.96)" fill="#0359a9"/><path d="M1715.62,1657.94c0-20.64,0-41.29.05-61.94,0-2.41-1.27-5.94,2.3-6.73a21.69,21.69,0,0,1,10.82.24c.65.19,1.22,1.56,1.32,2.44a49.59,49.59,0,0,1,.19,6q0,61.44-.06,122.89c0,2.76,1.64,6.85-1.84,8-3.3,1.08-7.34.78-10.85.07-2.87-.59-1.88-3.84-1.89-6-.08-13,0-26,0-39Z" transform="translate(1202.04 -514.96)" fill="#0359a9"/><path d="M118.31,1660c0,20.61,0,41.21,0,61.82,0,2.47,1.32,6.16-1.79,7.06a19.68,19.68,0,0,1-11.71-.24c-.63-.22-1.11-1.57-1.23-2.45a35.75,35.75,0,0,1-.16-5q0-61.82,0-123.64c0-2.82-1.46-6.92,1.87-8.08s7.23-.52,10.85-.21c1.93.17,2.1,2.23,2.13,3.91,0,2.66,0,5.32,0,8Z" transform="translate(1202.04 -514.96)" fill="#0359a9"/><path d="M-939.69,1660c0,20.6,0,41.21,0,61.81,0,2.47,1.33,6.15-1.83,7a19.42,19.42,0,0,1-11.7-.28c-.64-.23-1.09-1.58-1.21-2.47a37.36,37.36,0,0,1-.15-5q0-61.82,0-123.63c0-2.81-1.47-6.91,1.91-8.06s7.23-.42,10.86-.2c1.4.08,2,1.57,2,3,.07,2.33.09,4.65.1,7Z" transform="translate(1202.04 -514.96)" fill="#0359a9"/><path d="M-244.94,1289.37c-.07,7.6-4.8,10.63-12.29,7.93-1.37-.49-2.3-1.26-2.36-2.76-.09-2.33-.15-4.65-.12-7,.08-7.85.09-7.85,7.58-7.7C-245,1280-244.85,1280.26-244.94,1289.37Z" transform="translate(1202.04 -514.96)" fill="#0359a9"/><path d="M-687.69,1566.08c-.08,7.6-5,10.89-12,8.07a3.23,3.23,0,0,1-2.23-2.91c-.13-2-.11-4-.11-6,0-9,0-9,8.61-8.66C-687.6,1556.85-687.6,1556.85-687.69,1566.08Z" transform="translate(1202.04 -514.96)" fill="#0359a9"/><path d="M-743.89,1564.77c.07-7.48,4.91-10.64,12.14-8a2.92,2.92,0,0,1,2.19,2.84c.07,2.32.15,4.63.11,6.95-.12,7.75-.31,7.92-7.64,7.82C-744,1574.31-744,1574.31-743.89,1564.77Z" transform="translate(1202.04 -514.96)" fill="#0359a9"/><path d="M-301.42,1289.16c.13-9.08.19-9.16,7.34-9.15,6.61,0,6.94.33,7.13,7.32.06,2,0,3.94,0,5.9,0,2.69-1.1,4.4-4.07,4.31-.66,0-1.32,0-2,0C-301.54,1298-301.54,1298-301.42,1289.16Z" transform="translate(1202.04 -514.96)" fill="#0359a9"/></svg>